<svg width="32" height="35" viewBox="0 0 32 35" fill="none" xmlns="http://www.w3.org/2000/svg">
<path d="M27.78 33.65H4.49C3.12 33.65 2 32.53 2 31.16V7.85999C2 6.48999 3.12 5.37 4.49 5.37H27.78C29.15 5.37 30.27 6.48999 30.27 7.85999V31.15C30.27 32.53 29.15 33.65 27.78 33.65Z" stroke="white" stroke-width="2.5512" stroke-miterlimit="10" stroke-linecap="round" stroke-linejoin="round"/>
<path d="M30.27 13.5499H2" stroke="white" stroke-width="2.5512" stroke-miterlimit="10" stroke-linecap="round" stroke-linejoin="round"/>
<path d="M6.7998 2.07996V8.65996" stroke="white" stroke-width="2.5512" stroke-miterlimit="10" stroke-linecap="round" stroke-linejoin="round"/>
<path d="M25.5801 2.07996V8.65996" stroke="white" stroke-width="2.5512" stroke-miterlimit="10" stroke-linecap="round" stroke-linejoin="round"/>
<path d="M12.6698 17.9199H10.2798V20.3099H12.6698V17.9199Z" fill="white"/>
<path d="M17.3099 17.9199H14.9199V20.3099H17.3099V17.9199Z" fill="white"/>
<path d="M22.0599 17.9199H19.6699V20.3099H22.0599V17.9199Z" fill="white"/>
<path d="M26.7596 17.9199H24.3696V20.3099H26.7596V17.9199Z" fill="white"/>
<path d="M7.97984 22.2699H5.58984V24.6599H7.97984V22.2699Z" fill="white"/>
<path d="M12.6698 22.2699H10.2798V24.6599H12.6698V22.2699Z" fill="white"/>
<path d="M17.3099 22.2699H14.9199V24.6599H17.3099V22.2699Z" fill="white"/>
<path d="M22.0599 22.2699H19.6699V24.6599H22.0599V22.2699Z" fill="white"/>
<path d="M26.7596 22.2699H24.3696V24.6599H26.7596V22.2699Z" fill="white"/>
<path d="M7.97984 26.62H5.58984V29.01H7.97984V26.62Z" fill="white"/>
<path d="M12.6698 26.62H10.2798V29.01H12.6698V26.62Z" fill="white"/>
<path d="M17.3099 26.62H14.9199V29.01H17.3099V26.62Z" fill="white"/>
</svg>
