<svg width="50" height="53" viewBox="0 0 50 53" fill="none" xmlns="http://www.w3.org/2000/svg">
<path d="M25 0.903564C20.0555 0.903564 15.222 2.43032 11.1107 5.29077C6.99952 8.15122 3.79521 12.2169 1.90302 16.9736C0.0108301 21.7304 -0.48425 26.9646 0.48038 32.0143C1.44501 37.064 3.82603 41.7025 7.32234 45.3432C10.8187 48.9838 15.2732 51.4631 20.1227 52.4676C24.9723 53.472 29.9989 52.9565 34.5671 50.9862C39.1352 49.0159 43.0397 45.6793 45.7867 41.3983C48.5338 37.1174 50 32.0843 50 26.9357C49.9925 20.0339 47.3562 13.4171 42.6694 8.53682C37.9826 3.65654 31.6281 0.91137 25 0.903564V0.903564ZM25 49.8462C20.648 49.8462 16.3936 48.5024 12.775 45.9847C9.15644 43.467 6.33609 39.8885 4.67064 35.7018C3.00518 31.515 2.56942 26.908 3.41846 22.4633C4.2675 18.0187 6.36321 13.936 9.44058 10.7316C12.5179 7.5272 16.4387 5.34497 20.7072 4.46088C24.9756 3.57678 29.3999 4.03053 33.4207 5.76475C37.4415 7.49897 40.8781 10.4357 43.296 14.2037C45.7138 17.9717 47.0044 22.4017 47.0044 26.9334C46.9986 33.0084 44.6784 38.8329 40.5531 43.1286C36.4277 47.4243 30.8342 49.8402 25 49.8462V49.8462Z" fill="#469052"/>
<path fill-rule="evenodd" clip-rule="evenodd" d="M34.2399 20.3977C33.6896 19.83 33.0341 19.3792 32.3113 19.0716C31.5885 18.7639 30.813 18.6055 30.0296 18.6055C29.2462 18.6055 28.4707 18.7639 27.7479 19.0716C27.0252 19.3792 26.3696 19.83 25.8193 20.3977L24.9923 21.2405L24.1646 20.3977C23.6117 19.8347 22.9553 19.3881 22.2329 19.0834C21.5104 18.7787 20.7362 18.6219 19.9543 18.6219C18.3751 18.6219 16.8606 19.2607 15.744 20.3977C14.6273 21.5347 14 23.0769 14 24.6849C14 26.2929 14.6273 27.835 15.744 28.972L24.993 38.3899L34.2399 28.972C34.7974 28.4117 35.2401 27.7442 35.5423 27.0082C35.8444 26.2723 36 25.4825 36 24.6849C36 23.8872 35.8444 23.0975 35.5423 22.3615C35.2401 21.6256 34.7974 20.958 34.2399 20.3977Z" fill="#469052"/>
</svg>
