<svg width="39" height="39" viewBox="0 0 39 39" fill="none" xmlns="http://www.w3.org/2000/svg">
<path fill-rule="evenodd" clip-rule="evenodd" d="M19.4995 39C8.72996 39 -0.000488281 30.2696 -0.000488281 19.5C-0.000488281 8.73045 8.72996 0 19.4995 0C30.2691 0 38.9995 8.73045 38.9995 19.5C38.9995 30.2696 30.2691 39 19.4995 39ZM19.7712 18.4056C21.3679 18.4056 29.1312 14.04 29.1312 14.04L29.1437 13.26C29.1437 12.3989 28.4448 11.7 27.5814 11.7H11.9611C11.0984 11.7 10.3995 12.3989 10.3995 13.26V13.955C10.3995 13.955 18.2479 18.4056 19.7712 18.4056ZM10.412 16.38C10.4112 16.38 18.2479 20.5506 19.7712 20.5506C21.4412 20.5506 29.1312 16.38 29.1312 16.38L29.1437 25.74C29.1437 26.6011 28.4448 27.3 27.5814 27.3H11.9611C11.0992 27.3 10.3995 26.6011 10.3995 25.74L10.412 16.38Z" fill="white"/>
</svg>
