<svg width="40" height="39" viewBox="0 0 40 39" fill="none" xmlns="http://www.w3.org/2000/svg">
<path fill-rule="evenodd" clip-rule="evenodd" d="M0.000488281 19.5C0.000488281 30.2696 8.95479 39 20.0005 39C31.0462 39 40.0005 30.2696 40.0005 19.5C40.0005 8.73045 31.0462 0 20.0005 0C8.95479 0 0.000488281 8.73045 0.000488281 19.5ZM12.3815 31.171V27.0087C9.70786 25.0249 8.00047 22.0036 8.00047 18.6199C8.00047 12.6442 13.3255 7.8 19.8943 7.8C26.4635 7.8 31.7881 12.6442 31.7881 18.6199C31.7881 24.5952 26.4635 29.4398 19.8943 29.4398C18.6688 29.4398 17.486 29.2711 16.3733 28.9584L12.3815 31.171Z" fill="white"/>
<path d="M18.6242 15.6565L12.21 22.2781L18.0475 19.1553L21.0975 22.2781L27.4755 15.6565L21.7028 18.7246L18.6242 15.6565V15.6565Z" fill="white"/>
</svg>
