<svg width="47" height="30" viewBox="0 0 47 30" fill="none" xmlns="http://www.w3.org/2000/svg">
<path d="M17.0101 22.03H10.3501V4H31.3801V9.09V22.03H22.6301" stroke="#131634" stroke-width="2.5512" stroke-miterlimit="10" stroke-linecap="round" stroke-linejoin="round"/>
<path d="M35.6999 22.03H31.3799" stroke="#131634" stroke-width="2.5512" stroke-miterlimit="10" stroke-linecap="round" stroke-linejoin="round"/>
<path d="M31.3799 8.71997H37.9699C37.9699 8.71997 45.2099 8.72997 45.2099 16V22.03H41.3399" stroke="#131634" stroke-width="2.5512" stroke-miterlimit="10" stroke-linecap="round" stroke-linejoin="round"/>
<path d="M38.5199 25.3C40.0939 25.3 41.3699 24.024 41.3699 22.45C41.3699 20.876 40.0939 19.6 38.5199 19.6C36.9459 19.6 35.6699 20.876 35.6699 22.45C35.6699 24.024 36.9459 25.3 38.5199 25.3Z" stroke="#131634" stroke-width="2.5512" stroke-miterlimit="10" stroke-linecap="round" stroke-linejoin="round"/>
<path d="M19.83 25.3C21.404 25.3 22.68 24.024 22.68 22.45C22.68 20.876 21.404 19.6 19.83 19.6C18.256 19.6 16.98 20.876 16.98 22.45C16.98 24.024 18.256 25.3 19.83 25.3Z" stroke="#131634" stroke-width="2.5512" stroke-miterlimit="10" stroke-linecap="round" stroke-linejoin="round"/>
<path d="M10.35 7.63H2" stroke="#131634" stroke-width="2.5512" stroke-miterlimit="10" stroke-linecap="round" stroke-linejoin="round"/>
<path d="M10.3502 12.49H4.22021" stroke="#131634" stroke-width="2.5512" stroke-miterlimit="10" stroke-linecap="round" stroke-linejoin="round"/>
<path d="M10.3501 17.34H6.58008" stroke="#131634" stroke-width="2.5512" stroke-miterlimit="10" stroke-linecap="round" stroke-linejoin="round"/>
</svg>
