<svg width="104" height="82" viewBox="0 0 104 82" fill="none" xmlns="http://www.w3.org/2000/svg">
<path d="M63.9 66.1196L40.11 79.8496L40.09 79.8296L2 57.8296V24.0096" stroke="#131634" stroke-width="3.6303" stroke-miterlimit="10" stroke-linecap="round" stroke-linejoin="round"/>
<path d="M78.25 24.0096V41.5296" stroke="#131634" stroke-width="3.6303" stroke-miterlimit="10" stroke-linecap="round" stroke-linejoin="round"/>
<path d="M63.63 32.4496L78.25 24.0096L40.12 1.99963L2 24.0096L40.12 46.0196L54.89 37.4996" stroke="#131634" stroke-width="3.6303" stroke-miterlimit="10" stroke-linecap="round" stroke-linejoin="round"/>
<path d="M40.1201 46.0197V79.8297" stroke="#131634" stroke-width="3.6303" stroke-miterlimit="10" stroke-linecap="round" stroke-linejoin="round"/>
<path d="M16.79 15.5396L54.92 37.5496V47.5596L63.65 42.4896V32.4796L25.53 10.4696" stroke="#131634" stroke-width="3.6303" stroke-miterlimit="10" stroke-linecap="round" stroke-linejoin="round"/>
<path d="M78.0101 64.7596H72.3301V49.3496H90.3001V53.6996V64.7596H82.8201" stroke="#131634" stroke-width="2.7227" stroke-miterlimit="10" stroke-linecap="round" stroke-linejoin="round"/>
<path d="M93.9898 64.7596H90.2998" stroke="#131634" stroke-width="2.7227" stroke-miterlimit="10" stroke-linecap="round" stroke-linejoin="round"/>
<path d="M90.2998 53.3796H95.9398C95.9398 53.3796 102.13 53.3896 102.13 59.6096V64.7596H98.8198" stroke="#131634" stroke-width="2.7227" stroke-miterlimit="10" stroke-linecap="round" stroke-linejoin="round"/>
<path d="M96.4 67.5596C97.7475 67.5596 98.84 66.4671 98.84 65.1196C98.84 63.772 97.7475 62.6796 96.4 62.6796C95.0524 62.6796 93.96 63.772 93.96 65.1196C93.96 66.4671 95.0524 67.5596 96.4 67.5596Z" stroke="#131634" stroke-width="2.7227" stroke-miterlimit="10" stroke-linecap="round" stroke-linejoin="round"/>
<path d="M80.4195 67.5596C81.7671 67.5596 82.8595 66.4671 82.8595 65.1196C82.8595 63.772 81.7671 62.6796 80.4195 62.6796C79.0719 62.6796 77.9795 63.772 77.9795 65.1196C77.9795 66.4671 79.0719 67.5596 80.4195 67.5596Z" stroke="#131634" stroke-width="2.7227" stroke-miterlimit="10" stroke-linecap="round" stroke-linejoin="round"/>
<path d="M72.3297 52.4496H65.1797" stroke="#131634" stroke-width="2.7227" stroke-miterlimit="10" stroke-linecap="round" stroke-linejoin="round"/>
<path d="M72.3301 56.5996H67.0801" stroke="#131634" stroke-width="2.7227" stroke-miterlimit="10" stroke-linecap="round" stroke-linejoin="round"/>
<path d="M72.3296 60.7496H69.0996" stroke="#131634" stroke-width="2.7227" stroke-miterlimit="10" stroke-linecap="round" stroke-linejoin="round"/>
</svg>
