<svg width="35" height="35" viewBox="0 0 35 35" fill="none" xmlns="http://www.w3.org/2000/svg">
<path d="M33.75 17.5C33.75 26.4746 26.4746 33.75 17.5 33.75C8.52537 33.75 1.25 26.4746 1.25 17.5C1.25 8.52537 8.52537 1.25 17.5 1.25C26.4746 1.25 33.75 8.52537 33.75 17.5Z" fill="white" stroke="#131634" stroke-width="2.5" stroke-miterlimit="10" stroke-linecap="round" stroke-linejoin="round"/>
<path d="M11.5661 9.80868C11.5269 9.80868 11.4878 9.81839 11.4486 9.8281C11.4389 9.8281 11.4291 9.83782 11.4095 9.83782C11.3703 9.85724 11.3312 9.87666 11.3018 9.90579L11.292 9.9155C11.2725 9.93492 11.2529 9.96406 11.2333 9.98348C11.1355 10.1194 11.2725 10.5661 11.4095 10.9157L12.8677 14.7904L13.0929 15.4022L16.5672 24.6471L17.0664 26.23C17.0664 26.2397 17.0957 26.2688 17.1055 26.2785C17.1349 26.3076 17.1642 26.3271 17.1936 26.3465C17.2034 26.3562 17.2229 26.3659 17.2327 26.3659C17.2425 26.3659 17.2621 26.3853 17.2621 26.3853C17.311 26.4048 17.3502 26.4048 17.3991 26.4048C17.448 26.4048 17.4872 26.395 17.5361 26.3853C17.5459 26.3853 17.5655 26.3756 17.5655 26.3659C17.5753 26.3659 17.5949 26.3562 17.6046 26.3465C17.634 26.3271 17.6634 26.3076 17.6927 26.2785C17.7025 26.2688 17.7221 26.2494 17.7319 26.23L18.231 24.6471L21.7054 15.4022L21.9305 14.7904L23.3887 10.9157C23.5258 10.5661 23.6726 10.1194 23.5649 9.98348C23.5453 9.95435 23.5258 9.93492 23.5062 9.9155L23.4964 9.90579C23.467 9.87666 23.4279 9.85724 23.3887 9.83782C23.3789 9.82811 23.3594 9.8281 23.3496 9.8281C23.3104 9.81839 23.2713 9.80868 23.2321 9.80868C23.2224 9.78926 11.5661 9.80868 11.5661 9.80868ZM12.1337 10.605H16.5379L13.5137 14.2952L12.1337 10.605ZM20.8441 15.3342L17.3795 24.5694L13.915 15.3342L13.8464 15.1691L14.1303 14.8098C14.1303 14.8098 14.1303 14.8098 14.1303 14.8001L17.3795 10.8283L20.6288 14.8001C20.6288 14.8001 20.6288 14.8001 20.6386 14.8098L20.9224 15.1691L20.8441 15.3342ZM21.2454 14.2952L18.2212 10.605H22.6254L21.2454 14.2952Z" fill="#131634" stroke="#131634" stroke-width="0.5669" stroke-miterlimit="10"/>
</svg>
