<svg width="39" height="39" viewBox="0 0 39 39" fill="none" xmlns="http://www.w3.org/2000/svg">
<path fill-rule="evenodd" clip-rule="evenodd" d="M0 19.5002C0 30.2698 8.73044 39.0002 19.5 39.0002C30.2695 39.0002 39 30.2698 39 19.5002C39 8.73069 30.2695 0.000244141 19.5 0.000244141C8.73044 0.000244141 0 8.73069 0 19.5002ZM31.738 18.754C31.7354 25.1457 26.5358 30.3466 20.1428 30.3492H20.138C18.1973 30.3485 16.2905 29.8616 14.5969 28.9378L8.45001 30.5502L10.095 24.5417C9.0803 22.7832 8.54636 20.7885 8.54723 18.7448C8.54977 12.3516 13.7514 7.15025 20.1426 7.15025C23.2445 7.15159 26.1559 8.35914 28.3451 10.5509C30.5342 12.7425 31.7392 15.6558 31.738 18.754Z" fill="white"/>
<path fill-rule="evenodd" clip-rule="evenodd" d="M11.2339 27.7954L14.8816 26.8386L15.2335 27.0474C16.7132 27.9255 18.4094 28.3902 20.1388 28.3908H20.1427C25.4546 28.3908 29.778 24.0673 29.7801 18.7532C29.7811 16.178 28.7796 13.7567 26.96 11.935C25.1404 10.1133 22.7207 9.10954 20.1465 9.10864C14.8304 9.10864 10.507 13.4317 10.5049 18.7454C10.5041 20.5665 11.0137 22.34 11.9784 23.8744L12.2075 24.239L11.2339 27.7954ZM25.5875 21.2503C25.7896 21.348 25.926 21.414 25.9843 21.5112C26.0567 21.632 26.0567 22.2121 25.8154 22.889C25.5739 23.5657 24.4164 24.1834 23.8597 24.2666C23.3606 24.3412 22.7289 24.3723 22.0349 24.1518C21.6141 24.0182 21.0744 23.84 20.3832 23.5415C17.6671 22.3686 15.8315 19.7361 15.4846 19.2386C15.4603 19.2037 15.4433 19.1793 15.4338 19.1667L15.4315 19.1636C15.2781 18.959 14.2508 17.5882 14.2508 16.1695C14.2508 14.835 14.9063 14.1355 15.2081 13.8135C15.2288 13.7914 15.2478 13.7711 15.2648 13.7525C15.5304 13.4625 15.8443 13.39 16.0374 13.39C16.2305 13.39 16.4239 13.3918 16.5927 13.4002C16.6135 13.4013 16.6352 13.4012 16.6576 13.401C16.8264 13.4 17.0369 13.3988 17.2446 13.8976C17.3245 14.0895 17.4413 14.3741 17.5646 14.6743C17.8139 15.2812 18.0894 15.9518 18.1378 16.0488C18.2103 16.1939 18.2586 16.363 18.162 16.5564C18.1475 16.5854 18.1341 16.6128 18.1213 16.639C18.0488 16.7871 17.9954 16.896 17.8723 17.0397C17.8239 17.0963 17.7738 17.1572 17.7238 17.2181C17.6241 17.3395 17.5245 17.4609 17.4377 17.5473C17.2926 17.6918 17.1417 17.8486 17.3107 18.1386C17.4797 18.4287 18.0611 19.3774 18.9224 20.1457C19.8483 20.9715 20.653 21.3206 21.0609 21.4975C21.1405 21.532 21.205 21.56 21.2524 21.5837C21.542 21.7288 21.711 21.7045 21.88 21.5112C22.049 21.3179 22.6043 20.6652 22.7974 20.3752C22.9905 20.0852 23.1837 20.1335 23.4493 20.2302C23.7149 20.3269 25.1393 21.0278 25.4291 21.1728C25.4856 21.2011 25.5385 21.2267 25.5875 21.2503Z" fill="white"/>
</svg>
